HIERARCHY
ROOT Hips
{
  OFFSET 279.157 85.6768 304.565
  CHANNELS 6 Xposition Yposition Zposition Zrotation Xrotation Yrotation
  JOINT LeftUpLeg
  {
    OFFSET 8.64259 1.95398 -2.38835
    CHANNELS 3 Zrotation Xrotation Yrotation
    JOINT LeftLeg
    {
      OFFSET 43.7702 0 0
      CHANNELS 3 Zrotation Xrotation Yrotation
      JOINT LeftFoot
      {
        OFFSET 40.6238 0 0
        CHANNELS 3 Zrotation Xrotation Yrotation
        JOINT LeftToeBase
        {
          OFFSET 12.7242 0 0
          CHANNELS 3 Zrotation Xrotation Yrotation
          End Site
          {
            OFFSET 0 0 0
          }
        }
      }
    }
  }
  JOINT RightUpLeg
  {
    OFFSET -8.2249 1.95398 -2.59336
    CHANNELS 3 Zrotation Xrotation Yrotation
    JOINT RightLeg
    {
      OFFSET 43.5653 0 0
      CHANNELS 3 Zrotation Xrotation Yrotation
      JOINT RightFoot
      {
        OFFSET 40.6238 0 0
        CHANNELS 3 Zrotation Xrotation Yrotation
        JOINT RightToeBase
        {
          OFFSET 12.7242 0 0
          CHANNELS 3 Zrotation Xrotation Yrotation
          End Site
          {
            OFFSET 0 0 0
          }
        }
      }
    }
  }
  JOINT Spine
  {
    OFFSET 0.165834 0.87714 6.61349
    CHANNELS 3 Zrotation Xrotation Yrotation
    JOINT Spine1
    {
      OFFSET 7.38963 1.71661e-005 0
      CHANNELS 3 Zrotation Xrotation Yrotation
      JOINT Spine2
      {
        OFFSET 11.9445 1.14441e-005 0
        CHANNELS 3 Zrotation Xrotation Yrotation
        JOINT Spine3
        {
          OFFSET 14.7254 4.19617e-005 0
          CHANNELS 3 Zrotation Xrotation Yrotation
          JOINT Spine4
          {
            OFFSET 10.9679 0 0
            CHANNELS 3 Zrotation Xrotation Yrotation
            JOINT RightShoulder
            {
              OFFSET 2.46616 -1.6653 3.69651
              CHANNELS 3 Zrotation Xrotation Yrotation
              JOINT RightArm
              {
                OFFSET 13.0012 0 0
                CHANNELS 3 Zrotation Xrotation Yrotation
                JOINT RightForeArm
                {
                  OFFSET 28.7848 1.52588e-005 0
                  CHANNELS 3 Zrotation Xrotation Yrotation
                  JOINT RightHand
                  {
                    OFFSET 26.5688 1.52588e-005 0
                    CHANNELS 3 Zrotation Xrotation Yrotation
                    End Site
                    {
                      OFFSET 0 0 0
                    }
                  }
                }
              }
            }
            JOINT LeftShoulder
            {
              OFFSET 2.38034 -1.29275 -3.7523
              CHANNELS 3 Zrotation Xrotation Yrotation
              JOINT LeftArm
              {
                OFFSET 16.3182 6.10351e-005 0
                CHANNELS 3 Zrotation Xrotation Yrotation
                JOINT LeftForeArm
                {
                  OFFSET 27.0901 0 0
                  CHANNELS 3 Zrotation Xrotation Yrotation
                  JOINT LeftHand
                  {
                    OFFSET 24.5451 1.52588e-005 0
                    CHANNELS 3 Zrotation Xrotation Yrotation
                    End Site
                    {
                      OFFSET 0 0 0
                    }
                  }
                }
              }
            }
            JOINT Neck
            {
              OFFSET 5.0226 -0.0266342 0
              CHANNELS 3 Zrotation Xrotation Yrotation
              JOINT Head
              {
                OFFSET 6.69364 2.86102e-005 0
                CHANNELS 3 Zrotation Xrotation Yrotation
                End Site
                {
                  OFFSET 0 0 0
                }
              }
            }
          }
        }
      }
    }
  }
}
MOTION
Frames:	17
Frame Time:	0.0416667
-96.4115 93.7035 68.2621 -91.2765 -50.7142 -78.0973 -162.111 -40.5118 163.187 -30.1785 7.54177 1.03376 79.0204 -31.8102 64.0642 149.962 -5.11272 -66.813 176.176 27.9561 106.01 -34.0086 -9.44391 4.67834 65.4767 -3.47688 -1.69725 23.416 0.95461 4.97326 -1.21322 7.76466 -92.112 11.2708 -3.39729 -3.87049 -0.401008 -3.56424 -3.71737 -22.906 -2.07849 -4.7111 -2.89335 -2.07847 -4.7111 88.4458 -34.8697 -107.888 32.4664 0.391897 4.24158 6.01259 -16.7563 -1.05196 -19.3865 -0.473078 -7.44213 -92.6742 -54.6802 75.8982 -31.8706 -11.1004 -19.8831 25.7733 8.53673 -61.3392 12.0966 -1.31032 -14.04 6.16035 0.787329 -11.6325 -6.49432 2.89137 3.07241 
-96.761 91.0185 73.6514 -94.9406 -49.6453 -83.3079 -160.864 -42.0777 161.499 -36.3422 33.9598 1.3316 62.1022 -49.7759 59.848 148.28 -7.07846 -68.8052 174.681 30.8351 102.625 -49.4424 -13.5536 4.41268 71.3291 -5.67405 -4.10591 20.5086 1.64963 5.84256 -0.657947 7.9407 -91.7377 10.9512 -2.11404 -3.25663 -0.721864 -2.25523 -3.16055 -23.2287 -1.03833 -3.74077 -3.21606 -1.03834 -3.74078 87.6386 -34.4842 -109.519 34.0282 -0.533691 2.25768 6.1738 -15.4273 -2.2031 -19.5122 -0.403231 -7.4515 -93.3393 -55.5217 75.168 -24.6965 0.187521 -13.7139 11.1905 5.88538 -34.5862 1.98553 -0.324268 -10.5071 9.81391 1.49666 -4.19338 -6.86147 2.30435 2.38569 
-94.9219 90.0566 77.6668 -96.1036 -49.995 -85.605 -165.517 -37.6908 157.901 -51.6414 53.4415 5.25034 40.0695 -60.1075 32.8526 148.806 -5.40641 -67.3142 175.139 31.6511 98.0733 -54.74 -15.0315 4.36494 74.0932 -5.41783 -3.87698 20.4667 1.7225 5.54866 -0.0332726 8.05979 -91.4178 10.7377 -0.719934 -2.7551 -0.93584 -0.840459 -2.72079 -23.4477 0.141018 -2.84406 -3.43509 0.141007 -2.84405 88.2227 -30.9066 -109.873 36.872 -2.41258 -2.23463 6.44969 -11.9344 -3.60691 -24.7285 -0.43408 -5.91048 -92.3751 -54.8975 76.3734 -20.9443 -0.515999 -15.7554 12.0168 25.5387 -18.3758 9.63544 -0.158271 -4.84895 10.8046 1.93513 3.15736 -6.84415 1.08663 2.16997 
-96.4695 93.2044 82.1873 -98.5086 -50.5005 -93.0293 -165.217 -37.355 153.804 -46.0617 46.7312 4.47052 29.9981 -58.9448 15.4846 148.322 -5.01932 -67.0934 177.358 24.9063 90.9496 -50.7395 -15.6826 2.07964 73.0957 -3.05165 -3.21368 23.8206 0.443351 7.29697 0.45325 8.15161 -90.6803 10.5779 0.590038 -1.39975 -1.09362 0.527859 -1.42436 -23.6258 0.983451 -1.15775 -3.61311 0.983443 -1.15776 89.9706 -28.0561 -107.581 38.7938 -0.499904 -6.03881 4.56818 -9.28733 -5.58488 -26.5534 -0.424084 -5.35786 -91.1672 -55.1883 78.1422 -21.2337 -5.17726 -7.11863 11.8033 17.1888 -17.8219 8.23093 0.204318 -1.23191 3.95735 1.23528 6.78013 -5.36706 -0.0718501 2.74568 
-101.54 98.9046 87.1902 -101.201 -47.7296 -100.853 -145.518 -47.37 160.304 -7.7395 34.1781 0.599424 7.39948 -65.6278 2.47866 150.446 -3.78728 -65.6388 179.252 16.9593 87.1701 -45.1026 -15.4773 -2.807 63.6977 5.09336 0.547895 20.9449 1.02175 8.33712 1.00756 8.26656 -89.707 10.3429 2.14144 0.395375 -1.32626 2.15678 0.300688 -23.8733 1.92358 1.02091 -3.86061 1.92358 1.0209 90.8538 -26.6129 -106.341 41.418 -0.70106 -6.53075 3.56337 -8.91168 -9.87741 -30.1163 -0.291612 -5.66988 -90.2412 -53.4529 79.0999 -17.3545 -3.26712 1.59244 11.0514 17.3996 -19.7301 8.25818 0.424088 1.10264 -5.08687 0.136997 5.48091 -4.80383 -0.416781 1.30528 
-106.347 102.602 91.8261 -98.7084 -42.6861 -101.357 -140.245 -52.7594 156.094 -1.84196 35.1012 0.0302868 20.1479 -79.7961 16.872 153.247 -2.4292 -64.0435 178.424 17.7995 86.2172 -47.1311 -13.964 -2.93905 61.4147 6.02769 2.09228 18.8059 2.01661 6.44458 1.55743 8.28128 -89.1311 10.2901 3.50041 1.42422 -1.37674 3.55967 1.26862 -23.9337 2.91054 2.41089 -3.92108 2.91055 2.41088 90.3182 -25.3251 -108.007 41.561 -2.62435 -6.82099 2.63981 -13.0446 -13.2899 -28.5699 0.13342 -8.43104 -89.592 -48.1575 78.9479 -17.9116 4.37746 9.3456 8.17258 16.9509 -22.3234 5.63303 0.143487 -1.02661 -6.79507 0.682096 5.41837 -4.33515 0.224121 0.956992 
-110.379 103.591 96.4475 -96.1317 -39.2711 -98.4641 -136.946 -54.6593 154.132 -2.65387 34.7674 -0.052966 110.075 -80.8524 106.191 155.849 -0.706322 -62.3329 175.937 20.1218 88.0773 -45.8214 -13.5507 0.618522 59.281 5.67416 4.81931 25.098 0.698853 3.52582 1.65892 8.21767 -89.2428 10.4215 3.65172 1.1833 -1.24472 3.70027 1.02124 -23.8077 3.12722 2.22686 -3.79504 3.12721 2.22685 89.2534 -25.7964 -110.05 38.2018 -4.59161 -8.96281 3.79763 -13.0115 -12.0957 -30.5566 0.11186 -8.15757 -89.4736 -50.8404 79.6881 -16.887 9.73754 16.0147 5.88687 16.032 -23.639 3.88209 -0.196333 -6.20776 -5.7807 1.63427 9.53707 -3.24067 0.761029 1.43132 
-114.579 102.414 101.186 -96.2631 -36.2784 -97.9884 -133.629 -59.6273 153.622 -3.81556 27.3966 -0.300022 129.942 -68.3214 125.037 156.363 -0.197389 -61.8866 176.728 20.4354 90.7896 -44.92 -15.9781 -0.672672 60.7976 4.02002 3.31762 22.7908 1.41437 3.41448 1.57063 8.28221 -89.3422 10.2962 3.42997 1.01074 -1.37055 3.47114 0.858633 -23.9314 2.96756 1.99554 -3.91873 2.96756 1.99554 89.4853 -26.5437 -109.224 36.9498 -6.16822 -10.9521 4.3299 -11.8984 -12.2674 -30.9066 -0.357478 -5.98325 -88.2151 -50.6309 81.5178 -21.8792 6.82517 22.1259 7.99244 17.4184 -25.7193 -0.50764 -0.111493 -5.60631 -5.09519 3.15143 11.3451 -3.51378 2.02673 2.11996 
-118.668 98.902 106.164 -95.6674 -33.2857 -98.1318 -133.757 -66.4451 149.552 -5.5052 15.032 -0.821059 135.99 -53.9867 128.169 156.453 0.158271 -61.6143 175.784 21.6717 90.6903 -45.9945 -12.6917 -0.27203 58.3565 3.69048 -0.294697 23.8827 0.0225869 9.76015 1.46564 8.28502 -89.3961 10.2924 3.19611 0.92422 -1.37484 3.23371 0.782515 -23.9325 2.77052 1.84262 -3.91981 2.77055 1.84262 88.5841 -26.914 -110.918 36.5409 -4.76521 -9.83455 3.67786 -12.1989 -13.2328 -28.6593 0.0789964 -7.98507 -87.9501 -50.7728 81.9376 -26.8888 5.15241 24.5301 6.27979 14.3492 -23.0133 -3.18092 -0.0830852 -6.13226 -4.84966 4.59597 13.5492 -2.79661 3.24199 1.65102 
-122.231 93.2178 111.054 -95.9677 -30.0656 -98.9414 -135.836 -74.8423 143.385 -7.18378 8.99233 -1.32871 145.9 -33.5234 136.11 156.275 0.336023 -61.5103 174.292 19.6005 90.1398 -56.4984 -11.9144 -1.92701 76.6175 -8.81232 -3.17241 33.224 -2.26243 8.86717 1.47414 8.38837 -89.5151 10.0894 3.1585 0.69888 -1.57783 3.18618 0.559056 -24.137 2.80236 1.61648 -4.12434 2.80236 1.61647 88.1091 -28.0705 -111.349 35.2582 -3.81979 -8.70924 2.79839 -15.7287 -13.6728 -27.774 0.131752 -9.19355 -88.3743 -53.5788 81.8108 -28.5582 5.21183 24.3135 3.83083 7.7178 -21.0732 -7.14045 0.0614206 -8.01815 -3.2975 5.75025 15.6144 -0.534206 4.00296 2.47219 
-126.18 88.9996 116.094 -95.3333 -30.9744 -95.0425 -125.111 -73.768 153.716 -7.87573 8.19934 -1.31995 149.599 -23.2354 138.05 156.231 0.143406 -61.6569 173.288 17.22 91.7876 -62.4332 -8.6928 -0.885884 88.2894 -14.0103 -0.618363 36.1189 -2.94379 7.84799 1.27715 8.30689 -90.1061 10.263 2.49605 -0.42478 -1.40569 2.47495 -0.534303 -23.9597 2.50823 0.34551 -3.94709 2.50823 0.345502 87.2381 -30.7159 -111.859 34.5371 -2.69164 -6.95457 2.96578 -16.979 -11.7252 -28.2662 -0.641344 -5.99317 -88.6931 -61.4407 82.6759 -22.8923 7.70552 16.0007 -0.421907 -2.66495 -12.1714 -4.92075 -0.0488942 -5.68913 1.70742 7.4255 17.343 -3.12486 4.62681 2.90848 
-131.001 86.7805 120.769 -94.3059 -34.9187 -94.727 -127.105 -72.9659 154.224 -7.15408 21.412 -1.36981 151.271 -31.0353 140.923 157.004 -0.337413 -61.8913 172.892 19.8566 90.4578 -71.5375 -7.92549 0.423391 81.6279 -9.29067 -2.8108 49.026 -6.1085 10.5353 0.907611 7.94641 -89.8308 10.9813 1.88504 0.146847 -0.688271 1.88967 0.0637011 -23.2329 1.75372 0.706742 -3.22024 1.75371 0.706733 87.4229 -32.1374 -110.885 40.5122 -3.34645 -3.06793 5.76324 -11.4803 -5.50077 -24.1857 -0.271113 -6.6056 -89.452 -58.8956 81.2347 -24.8232 7.96852 6.52784 -0.304475 -20.1776 -2.49669 3.00776 0.288945 2.27749 2.38812 6.28433 8.65881 -4.1853 4.76433 3.96748 
-135.223 85.1358 124.486 -95.5874 -39.3207 -96.992 -127.536 -73.4649 157.07 -5.79352 38.537 -1.11461 155.828 -46.4862 145.361 157.009 -1.13437 -62.4648 174.394 28.7264 86.1857 -85.6939 -14.6253 0.45619 61.9183 1.00311 -0.201701 35.9642 -3.09526 11.4792 0.339202 7.83801 -89.2606 11.1921 1.01902 1.37669 -0.479085 1.07862 1.33051 -23.0098 0.558203 1.61924 -2.99716 0.55819 1.61924 87.4265 -31.7797 -111.034 48.9308 -0.841402 3.01424 6.04564 -8.76882 -4.51663 -20.5995 -0.0539505 -7.43677 -90.5886 -56.241 79.1646 -21.4711 11.3734 -1.25043 -1.22382 -22.8007 -2.28881 2.82651 0.216519 2.07358 7.36168 3.46625 -3.69219 -7.41243 4.17697 0.0749463 
-138.105 83.9318 127.57 -98.1779 -39.4008 -98.0272 -121.335 -77.2377 162.436 -4.96256 41.8382 -0.541226 159.368 -62.5785 146.783 156.885 -0.88597 -62.3056 179.422 44.5589 83.2493 -99.5414 -23.8018 -2.35623 41.8842 9.90313 6.65483 20.8432 1.06856 8.24119 0.106925 8.03148 -89.1361 10.8035 0.611682 1.66112 -0.868371 0.684182 1.63259 -23.3951 0.0842745 1.76814 -3.38243 0.0842499 1.76812 88.5885 -30.677 -109.261 51.3684 -0.79896 7.30254 5.9704 -12.0472 -6.06803 -19.2071 0.0905503 -9.63252 -91.5253 -54.972 77.5895 -16.0706 9.61541 -10.9366 -0.499425 -6.12977 -6.83467 -0.255792 -0.0815391 -3.88328 11.0789 0.619805 -13.9362 -5.52085 3.95303 -1.91193 
-140.96 85.1436 130.725 -96.4435 -36.9109 -94.1604 -126.198 -77.8906 153.679 -5.4438 38.4249 -0.470824 158.998 -69.1129 145.689 156.914 -0.810033 -62.2479 -171.528 62.2455 80.0951 -100.578 -22.2091 -3.8204 30.6567 11.0579 10.0331 20.1197 1.26062 8.23002 -0.0540998 8.06718 -89.5129 10.7429 0.116967 0.958809 -0.928349 0.159084 0.952715 -23.4612 -0.17658 0.949629 -3.44858 -0.17658 0.949632 89.0026 -30.9439 -108.347 47.0184 0.435795 7.41408 3.52863 -15.8823 -8.98869 -23.7268 -0.24525 -8.06324 -89.9815 -51.9979 79.1743 -18.2649 4.71609 -20.8014 4.29369 2.0335 -11.957 2.55166 -0.0957161 -4.50587 13.1752 -0.396223 -19.9824 -5.6318 4.8258 -3.85432 
-143.981 89.2634 134.202 -97.6409 -35.2428 -89.339 -119.088 -74.0874 158.447 -6.86968 38.0918 -0.452165 158.46 -70.5418 145.099 156.532 -1.38911 -62.7195 -173.311 67.3326 85.5592 -86.4144 -12.6918 -3.27896 25.2334 5.45112 6.3359 17.5089 1.96279 8.2672 -0.276275 8.27846 -90.3396 10.3153 -0.705865 -0.621485 -1.3556 -0.732524 -0.589826 -23.8903 -0.486454 -0.804888 -3.87764 -0.486454 -0.804894 88.7472 -30.6207 -108.974 43.2818 0.793102 4.51681 3.67349 -9.72363 -9.14121 -29.8818 -0.642174 -4.42291 -89.7416 -50.1364 79.1467 -21.4432 -0.189648 -26.6055 6.95391 -0.971923 -15.3219 7.03989 -0.252211 -6.17879 6.59715 1.46589 -23.4209 -3.48633 6.11825 -4.87538 
-147.423 93.8262 138.122 -99.1612 -38.6089 -86.3278 -118.116 -69.6202 161.761 -8.91163 41.4973 0.830542 160.7 -69.6273 146.461 154.606 -3.32854 -64.466 -179.012 63.1858 89.5812 -67.9497 -6.25693 -1.55879 27.3561 0.185877 2.01408 19.6119 1.74839 6.61141 -0.786416 8.47957 -91.0562 9.89516 -2.04671 -1.93027 -1.77548 -2.12966 -1.83834 -24.3059 -1.37217 -2.45596 -4.29326 -1.37217 -2.45596 88.1481 -30.3246 -110.27 40.3549 -0.336465 2.46669 3.84622 -8.06249 -10.3842 -28.6446 -0.221381 -5.86088 -89.4897 -47.0558 78.864 -21.3844 -0.094416 -31.0718 6.14647 -5.55254 -17.7214 8.51602 -0.582412 -9.59543 -1.82957 3.17077 -28.1315 -2.45449 6.61579 -2.14791 
